<svg width="167" height="29" viewBox="0 0 167 29" fill="none" xmlns="http://www.w3.org/2000/svg">
<path d="M9.55627 28.245C7.85294 28.245 6.31294 27.9533 4.93627 27.37C3.58294 26.7867 2.5096 25.9467 1.71627 24.85C0.922935 23.7533 0.514602 22.4583 0.491268 20.965H5.74127C5.81127 21.9683 6.16127 22.7617 6.79127 23.345C7.4446 23.9283 8.33127 24.22 9.45127 24.22C10.5946 24.22 11.4929 23.9517 12.1463 23.415C12.7996 22.855 13.1263 22.1317 13.1263 21.245C13.1263 20.5217 12.9046 19.9267 12.4613 19.46C12.0179 18.9933 11.4579 18.6317 10.7813 18.375C10.1279 18.095 9.21794 17.7917 8.05127 17.465C6.4646 16.9983 5.1696 16.5433 4.16627 16.1C3.18627 15.6333 2.3346 14.945 1.61127 14.035C0.911268 13.1017 0.561268 11.865 0.561268 10.325C0.561268 8.87833 0.922935 7.61833 1.64627 6.545C2.3696 5.47167 3.3846 4.655 4.69127 4.095C5.99794 3.51167 7.49127 3.22 9.17127 3.22C11.6913 3.22 13.7329 3.83833 15.2963 5.075C16.8829 6.28833 17.7579 7.99167 17.9213 10.185H12.5313C12.4846 9.345 12.1229 8.65667 11.4463 8.12C10.7929 7.56 9.91794 7.28 8.82127 7.28C7.8646 7.28 7.0946 7.525 6.51127 8.015C5.95127 8.505 5.67127 9.21667 5.67127 10.15C5.67127 10.8033 5.88127 11.3517 6.30127 11.795C6.7446 12.215 7.28127 12.565 7.91127 12.845C8.5646 13.1017 9.4746 13.405 10.6413 13.755C12.2279 14.2217 13.5229 14.6883 14.5263 15.155C15.5296 15.6217 16.3929 16.3217 17.1163 17.255C17.8396 18.1883 18.2013 19.4133 18.2013 20.93C18.2013 22.2367 17.8629 23.45 17.1863 24.57C16.5096 25.69 15.5179 26.5883 14.2113 27.265C12.9046 27.9183 11.3529 28.245 9.55627 28.245ZM20.8073 18.235C20.8073 16.275 21.1923 14.5367 21.9623 13.02C22.7556 11.5033 23.8173 10.3367 25.1473 9.52C26.5006 8.70333 28.0056 8.295 29.6623 8.295C31.109 8.295 32.369 8.58667 33.4423 9.17C34.539 9.75333 35.414 10.4883 36.0673 11.375V8.61H41.0023V28H36.0673V25.165C35.4373 26.075 34.5623 26.8333 33.4423 27.44C32.3456 28.0233 31.074 28.315 29.6273 28.315C27.994 28.315 26.5006 27.895 25.1473 27.055C23.8173 26.215 22.7556 25.0367 21.9623 23.52C21.1923 21.98 20.8073 20.2183 20.8073 18.235ZM36.0673 18.305C36.0673 17.115 35.834 16.1 35.3673 15.26C34.9006 14.3967 34.2706 13.7433 33.4773 13.3C32.684 12.8333 31.8323 12.6 30.9223 12.6C30.0123 12.6 29.1723 12.8217 28.4023 13.265C27.6323 13.7083 27.0023 14.3617 26.5123 15.225C26.0456 16.065 25.8123 17.0683 25.8123 18.235C25.8123 19.4017 26.0456 20.4283 26.5123 21.315C27.0023 22.1783 27.6323 22.8433 28.4023 23.31C29.1956 23.7767 30.0356 24.01 30.9223 24.01C31.8323 24.01 32.684 23.7883 33.4773 23.345C34.2706 22.8783 34.9006 22.225 35.3673 21.385C35.834 20.5217 36.0673 19.495 36.0673 18.305ZM50.3059 11.445C50.9359 10.5117 51.7992 9.75333 52.8959 9.17C54.0159 8.58667 55.2876 8.295 56.7109 8.295C58.3676 8.295 59.8609 8.70333 61.1909 9.52C62.5442 10.3367 63.6059 11.5033 64.3759 13.02C65.1692 14.5133 65.5659 16.2517 65.5659 18.235C65.5659 20.2183 65.1692 21.98 64.3759 23.52C63.6059 25.0367 62.5442 26.215 61.1909 27.055C59.8609 27.895 58.3676 28.315 56.7109 28.315C55.2642 28.315 53.9926 28.035 52.8959 27.475C51.8226 26.8917 50.9592 26.145 50.3059 25.235V28H45.4059V2.1H50.3059V11.445ZM60.5609 18.235C60.5609 17.0683 60.3159 16.065 59.8259 15.225C59.3592 14.3617 58.7292 13.7083 57.9359 13.265C57.1659 12.8217 56.3259 12.6 55.4159 12.6C54.5292 12.6 53.6892 12.8333 52.8959 13.3C52.1259 13.7433 51.4959 14.3967 51.0059 15.26C50.5392 16.1233 50.3059 17.1383 50.3059 18.305C50.3059 19.4717 50.5392 20.4867 51.0059 21.35C51.4959 22.2133 52.1259 22.8783 52.8959 23.345C53.6892 23.7883 54.5292 24.01 55.4159 24.01C56.3259 24.01 57.1659 23.7767 57.9359 23.31C58.7292 22.8433 59.3592 22.1783 59.8259 21.315C60.3159 20.4517 60.5609 19.425 60.5609 18.235ZM80.2245 28L73.6445 19.74V28H68.7445V2.1H73.6445V16.835L80.1545 8.61H86.5245L77.9845 18.34L86.5945 28H80.2245ZM91.2869 6.3C90.4235 6.3 89.7002 6.03167 89.1169 5.495C88.5569 4.935 88.2769 4.24667 88.2769 3.43C88.2769 2.61333 88.5569 1.93666 89.1169 1.4C89.7002 0.839999 90.4235 0.559999 91.2869 0.559999C92.1502 0.559999 92.8619 0.839999 93.4219 1.4C94.0052 1.93666 94.2969 2.61333 94.2969 3.43C94.2969 4.24667 94.0052 4.935 93.4219 5.495C92.8619 6.03167 92.1502 6.3 91.2869 6.3ZM93.7019 8.61V28H88.8019V8.61H93.7019Z" fill="black"/>
<path d="M100.331 28.245C99.4443 28.245 98.7093 27.9767 98.126 27.44C97.566 26.88 97.286 26.1917 97.286 25.375C97.286 24.5583 97.566 23.8817 98.126 23.345C98.7093 22.785 99.4443 22.505 100.331 22.505C101.194 22.505 101.906 22.785 102.466 23.345C103.026 23.8817 103.306 24.5583 103.306 25.375C103.306 26.1917 103.026 26.88 102.466 27.44C101.906 27.9767 101.194 28.245 100.331 28.245Z" fill="#FF0C0C"/>
<path d="M114.291 28.315C112.704 28.315 111.281 28.035 110.021 27.475C108.761 26.8917 107.757 26.11 107.011 25.13C106.287 24.15 105.891 23.065 105.821 21.875H110.756C110.849 22.6217 111.211 23.24 111.841 23.73C112.494 24.22 113.299 24.465 114.256 24.465C115.189 24.465 115.912 24.2783 116.426 23.905C116.962 23.5317 117.231 23.0533 117.231 22.47C117.231 21.84 116.904 21.3733 116.251 21.07C115.621 20.7433 114.606 20.3933 113.206 20.02C111.759 19.67 110.569 19.3083 109.636 18.935C108.726 18.5617 107.932 17.99 107.256 17.22C106.602 16.45 106.276 15.4117 106.276 14.105C106.276 13.0317 106.579 12.0517 107.186 11.165C107.816 10.2783 108.702 9.57833 109.846 9.065C111.012 8.55167 112.377 8.295 113.941 8.295C116.251 8.295 118.094 8.87833 119.471 10.045C120.847 11.1883 121.606 12.74 121.746 14.7H117.056C116.986 13.93 116.659 13.3233 116.076 12.88C115.516 12.4133 114.757 12.18 113.801 12.18C112.914 12.18 112.226 12.3433 111.736 12.67C111.269 12.9967 111.036 13.4517 111.036 14.035C111.036 14.6883 111.362 15.19 112.016 15.54C112.669 15.8667 113.684 16.205 115.061 16.555C116.461 16.905 117.616 17.2667 118.526 17.64C119.436 18.0133 120.217 18.5967 120.871 19.39C121.547 20.16 121.897 21.1867 121.921 22.47C121.921 23.59 121.606 24.5933 120.976 25.48C120.369 26.3667 119.482 27.0667 118.316 27.58C117.172 28.07 115.831 28.315 114.291 28.315ZM128.046 6.3C127.182 6.3 126.459 6.03167 125.876 5.495C125.316 4.935 125.036 4.24667 125.036 3.43C125.036 2.61333 125.316 1.93666 125.876 1.4C126.459 0.839999 127.182 0.559999 128.046 0.559999C128.909 0.559999 129.621 0.839999 130.181 1.4C130.764 1.93666 131.056 2.61333 131.056 3.43C131.056 4.24667 130.764 4.935 130.181 5.495C129.621 6.03167 128.909 6.3 128.046 6.3ZM130.461 8.61V28H125.561V8.61H130.461ZM140.625 12.635V22.015C140.625 22.6683 140.777 23.1467 141.08 23.45C141.407 23.73 141.943 23.87 142.69 23.87H144.965V28H141.885C137.755 28 135.69 25.9933 135.69 21.98V12.635H133.38V8.61H135.69V3.815H140.625V8.61H144.965V12.635H140.625ZM166.132 17.885C166.132 18.585 166.086 19.215 165.992 19.775H151.817C151.934 21.175 152.424 22.2717 153.287 23.065C154.151 23.8583 155.212 24.255 156.472 24.255C158.292 24.255 159.587 23.4733 160.357 21.91H165.642C165.082 23.7767 164.009 25.3167 162.422 26.53C160.836 27.72 158.887 28.315 156.577 28.315C154.711 28.315 153.031 27.9067 151.537 27.09C150.067 26.25 148.912 25.0717 148.072 23.555C147.256 22.0383 146.847 20.2883 146.847 18.305C146.847 16.2983 147.256 14.5367 148.072 13.02C148.889 11.5033 150.032 10.3367 151.502 9.52C152.972 8.70333 154.664 8.295 156.577 8.295C158.421 8.295 160.066 8.69167 161.512 9.485C162.982 10.2783 164.114 11.41 164.907 12.88C165.724 14.3267 166.132 15.995 166.132 17.885ZM161.057 16.485C161.034 15.225 160.579 14.2217 159.692 13.475C158.806 12.705 157.721 12.32 156.437 12.32C155.224 12.32 154.197 12.6933 153.357 13.44C152.541 14.1633 152.039 15.1783 151.852 16.485H161.057Z" fill="#1877F2"/>
</svg>
