<svg width="195" height="34" viewBox="0 0 195 34" fill="none" xmlns="http://www.w3.org/2000/svg">
<path d="M10.6712 33.287C8.67582 33.287 6.87182 32.9453 5.25915 32.262C3.67382 31.5787 2.41648 30.5947 1.48715 29.31C0.557818 28.0253 0.0794845 26.5083 0.0521512 24.759H6.20215C6.28415 25.9343 6.69415 26.8637 7.43215 27.547C8.19748 28.2303 9.23615 28.572 10.5482 28.572C11.8875 28.572 12.9398 28.2577 13.7052 27.629C14.4705 26.973 14.8532 26.1257 14.8532 25.087C14.8532 24.2397 14.5935 23.5427 14.0742 22.996C13.5548 22.4493 12.8988 22.0257 12.1062 21.725C11.3408 21.397 10.2748 21.0417 8.90815 20.659C7.04949 20.1123 5.53248 19.5793 4.35715 19.06C3.20915 18.5133 2.21148 17.707 1.36415 16.641C0.544151 15.5477 0.134151 14.099 0.134151 12.295C0.134151 10.6003 0.557818 9.12433 1.40515 7.867C2.25248 6.60967 3.44148 5.653 4.97215 4.997C6.50282 4.31367 8.25215 3.972 10.2202 3.972C13.1722 3.972 15.5638 4.69633 17.3952 6.145C19.2538 7.56633 20.2788 9.56167 20.4702 12.131H14.1562C14.1015 11.147 13.6778 10.3407 12.8852 9.712C12.1198 9.056 11.0948 8.728 9.81015 8.728C8.68948 8.728 7.78748 9.015 7.10415 9.589C6.44815 10.163 6.12015 10.9967 6.12015 12.09C6.12015 12.8553 6.36615 13.4977 6.85815 14.017C7.37749 14.509 8.00615 14.919 8.74415 15.247C9.50948 15.5477 10.5755 15.903 11.9422 16.313C13.8008 16.8597 15.3178 17.4063 16.4932 17.953C17.6685 18.4997 18.6798 19.3197 19.5272 20.413C20.3745 21.5063 20.7982 22.9413 20.7982 24.718C20.7982 26.2487 20.4018 27.67 19.6092 28.982C18.8165 30.294 17.6548 31.3463 16.1242 32.139C14.5935 32.9043 12.7758 33.287 10.6712 33.287ZM23.9164 21.561C23.9164 19.265 24.3674 17.2287 25.2694 15.452C26.1988 13.6753 27.4424 12.3087 29.0004 11.352C30.5858 10.3953 32.3488 9.917 34.2894 9.917C35.9841 9.917 37.4601 10.2587 38.7174 10.942C40.0021 11.6253 41.0271 12.4863 41.7924 13.525V10.286H47.5734V33H41.7924V29.679C41.0544 30.745 40.0294 31.6333 38.7174 32.344C37.4328 33.0273 35.9431 33.369 34.2484 33.369C32.3351 33.369 30.5858 32.877 29.0004 31.893C27.4424 30.909 26.1988 29.5287 25.2694 27.752C24.3674 25.948 23.9164 23.8843 23.9164 21.561ZM41.7924 21.643C41.7924 20.249 41.5191 19.06 40.9724 18.076C40.4258 17.0647 39.6878 16.2993 38.7584 15.78C37.8291 15.2333 36.8314 14.96 35.7654 14.96C34.6994 14.96 33.7154 15.2197 32.8134 15.739C31.9114 16.2583 31.1734 17.0237 30.5994 18.035C30.0528 19.019 29.7794 20.1943 29.7794 21.561C29.7794 22.9277 30.0528 24.1303 30.5994 25.169C31.1734 26.1803 31.9114 26.9593 32.8134 27.506C33.7428 28.0527 34.7268 28.326 35.7654 28.326C36.8314 28.326 37.8291 28.0663 38.7584 27.547C39.6878 27.0003 40.4258 26.235 40.9724 25.251C41.5191 24.2397 41.7924 23.037 41.7924 21.643ZM58.5374 13.607C59.2754 12.5137 60.2868 11.6253 61.5714 10.942C62.8834 10.2587 64.3731 9.917 66.0404 9.917C67.9811 9.917 69.7304 10.3953 71.2884 11.352C72.8738 12.3087 74.1174 13.6753 75.0194 15.452C75.9488 17.2013 76.4134 19.2377 76.4134 21.561C76.4134 23.8843 75.9488 25.948 75.0194 27.752C74.1174 29.5287 72.8738 30.909 71.2884 31.893C69.7304 32.877 67.9811 33.369 66.0404 33.369C64.3458 33.369 62.8561 33.041 61.5714 32.385C60.3141 31.7017 59.3028 30.827 58.5374 29.761V33H52.7974V2.66H58.5374V13.607ZM70.5504 21.561C70.5504 20.1943 70.2634 19.019 69.6894 18.035C69.1428 17.0237 68.4048 16.2583 67.4754 15.739C66.5734 15.2197 65.5894 14.96 64.5234 14.96C63.4848 14.96 62.5008 15.2333 61.5714 15.78C60.6694 16.2993 59.9314 17.0647 59.3574 18.076C58.8108 19.0873 58.5374 20.2763 58.5374 21.643C58.5374 23.0097 58.8108 24.1987 59.3574 25.21C59.9314 26.2213 60.6694 27.0003 61.5714 27.547C62.5008 28.0663 63.4848 28.326 64.5234 28.326C65.5894 28.326 66.5734 28.0527 67.4754 27.506C68.4048 26.9593 69.1428 26.1803 69.6894 25.169C70.2634 24.1577 70.5504 22.955 70.5504 21.561ZM93.6504 33L85.9424 23.324V33H80.2024V2.66H85.9424V19.921L93.5684 10.286H101.03L91.0264 21.684L101.112 33H93.6504ZM106.675 7.58C105.663 7.58 104.816 7.26567 104.133 6.637C103.477 5.981 103.149 5.17466 103.149 4.218C103.149 3.26133 103.477 2.46866 104.133 1.84C104.816 1.184 105.663 0.855998 106.675 0.855998C107.686 0.855998 108.52 1.184 109.176 1.84C109.859 2.46866 110.201 3.26133 110.201 4.218C110.201 5.17466 109.859 5.981 109.176 6.637C108.52 7.26567 107.686 7.58 106.675 7.58ZM109.504 10.286V33H103.764V10.286H109.504Z" fill="white"/>
<path d="M117.335 33.287C116.296 33.287 115.435 32.9727 114.752 32.344C114.096 31.688 113.768 30.8817 113.768 29.925C113.768 28.9683 114.096 28.1757 114.752 27.547C115.435 26.891 116.296 26.563 117.335 26.563C118.346 26.563 119.18 26.891 119.836 27.547C120.492 28.1757 120.82 28.9683 120.82 29.925C120.82 30.8817 120.492 31.688 119.836 32.344C119.18 32.9727 118.346 33.287 117.335 33.287Z" fill="#FF0C0C"/>
<path d="M133.753 33.369C131.894 33.369 130.227 33.041 128.751 32.385C127.275 31.7017 126.1 30.786 125.225 29.638C124.378 28.49 123.913 27.219 123.831 25.825H129.612C129.721 26.6997 130.145 27.424 130.883 27.998C131.648 28.572 132.591 28.859 133.712 28.859C134.805 28.859 135.653 28.6403 136.254 28.203C136.883 27.7657 137.197 27.2053 137.197 26.522C137.197 25.784 136.814 25.2373 136.049 24.882C135.311 24.4993 134.122 24.0893 132.482 23.652C130.787 23.242 129.393 22.8183 128.3 22.381C127.234 21.9437 126.305 21.274 125.512 20.372C124.747 19.47 124.364 18.2537 124.364 16.723C124.364 15.4657 124.719 14.3177 125.43 13.279C126.168 12.2403 127.207 11.4203 128.546 10.819C129.913 10.2177 131.512 9.917 133.343 9.917C136.049 9.917 138.208 10.6003 139.821 11.967C141.434 13.3063 142.322 15.124 142.486 17.42H136.992C136.91 16.518 136.527 15.8073 135.844 15.288C135.188 14.7413 134.3 14.468 133.179 14.468C132.14 14.468 131.334 14.6593 130.76 15.042C130.213 15.4247 129.94 15.9577 129.94 16.641C129.94 17.4063 130.323 17.994 131.088 18.404C131.853 18.7867 133.042 19.183 134.655 19.593C136.295 20.003 137.648 20.4267 138.714 20.864C139.78 21.3013 140.696 21.9847 141.461 22.914C142.254 23.816 142.664 25.0187 142.691 26.522C142.691 27.834 142.322 29.0093 141.584 30.048C140.873 31.0867 139.835 31.9067 138.468 32.508C137.129 33.082 135.557 33.369 133.753 33.369ZM149.932 7.58C148.92 7.58 148.073 7.26567 147.39 6.637C146.734 5.981 146.406 5.17466 146.406 4.218C146.406 3.26133 146.734 2.46866 147.39 1.84C148.073 1.184 148.92 0.855998 149.932 0.855998C150.943 0.855998 151.777 1.184 152.433 1.84C153.116 2.46866 153.458 3.26133 153.458 4.218C153.458 5.17466 153.116 5.981 152.433 6.637C151.777 7.26567 150.943 7.58 149.932 7.58ZM152.761 10.286V33H147.021V10.286H152.761ZM164.733 15.001V25.989C164.733 26.7543 164.91 27.3147 165.266 27.67C165.648 27.998 166.277 28.162 167.152 28.162H169.817V33H166.209C161.371 33 158.952 30.6493 158.952 25.948V15.001H156.246V10.286H158.952V4.669H164.733V10.286H169.817V15.001H164.733ZM194.678 21.151C194.678 21.971 194.623 22.709 194.514 23.365H177.909C178.046 25.005 178.62 26.2897 179.631 27.219C180.642 28.1483 181.886 28.613 183.362 28.613C185.494 28.613 187.011 27.6973 187.913 25.866H194.104C193.448 28.0527 192.191 29.8567 190.332 31.278C188.473 32.672 186.191 33.369 183.485 33.369C181.298 33.369 179.33 32.8907 177.581 31.934C175.859 30.95 174.506 29.5697 173.522 27.793C172.565 26.0163 172.087 23.9663 172.087 21.643C172.087 19.2923 172.565 17.2287 173.522 15.452C174.479 13.6753 175.818 12.3087 177.54 11.352C179.262 10.3953 181.244 9.917 183.485 9.917C185.644 9.917 187.571 10.3817 189.266 11.311C190.988 12.2403 192.314 13.566 193.243 15.288C194.2 16.9827 194.678 18.937 194.678 21.151ZM188.733 19.511C188.706 18.035 188.173 16.8597 187.134 15.985C186.095 15.083 184.824 14.632 183.321 14.632C181.9 14.632 180.697 15.0693 179.713 15.944C178.756 16.7913 178.169 17.9803 177.95 19.511H188.733Z" fill="#1877F2"/>
</svg>
