<svg width="267" height="46" viewBox="0 0 267 46" fill="none" xmlns="http://www.w3.org/2000/svg">
<path d="M14.674 45.3947C11.9297 45.3947 9.44861 44.9248 7.23064 43.985C5.05027 43.0452 3.32101 41.6919 2.04287 39.925C0.764717 38.1581 0.106846 36.0718 0.0692539 33.6658H8.52759C8.64037 35.2823 9.20425 36.5605 10.2193 37.5003C11.2718 38.4401 12.7004 38.91 14.5048 38.91C16.3468 38.91 17.7942 38.4777 18.8468 37.6131C19.8993 36.7108 20.4256 35.5455 20.4256 34.1169C20.4256 32.9516 20.0685 31.993 19.3543 31.2411C18.64 30.4893 17.7378 29.9066 16.6476 29.4931C15.595 29.0419 14.1289 28.5532 12.2493 28.0269C9.69296 27.2751 7.60657 26.542 5.99009 25.8278C4.4112 25.0759 3.03907 23.9669 1.8737 22.5008C0.745921 20.9971 0.182032 19.0047 0.182032 16.5236C0.182032 14.1929 0.764717 12.1629 1.93009 10.4336C3.09546 8.70435 4.73074 7.38861 6.83592 6.48639C8.94111 5.54657 11.347 5.07667 14.0537 5.07667C18.1137 5.07667 21.4031 6.07287 23.9218 8.06528C26.4781 10.0201 27.8878 12.7643 28.1509 16.2981H19.467C19.3918 14.9447 18.8092 13.8357 17.719 12.9711C16.6664 12.0689 15.2567 11.6178 13.4898 11.6178C11.9485 11.6178 10.708 12.0125 9.76814 12.8019C8.86592 13.5914 8.41481 14.738 8.41481 16.2417C8.41481 17.2943 8.75314 18.1777 9.42981 18.8919C10.1441 19.5686 11.0087 20.1325 12.0237 20.5836C13.0763 20.9971 14.5424 21.4858 16.422 22.0497C18.9783 22.8016 21.0647 23.5534 22.6812 24.3053C24.2977 25.0571 25.6886 26.1849 26.854 27.6886C28.0193 29.1923 28.602 31.1659 28.602 33.6094C28.602 35.7146 28.0569 37.6694 26.9668 39.4739C25.8766 41.2783 24.2789 42.7256 22.1737 43.8158C20.0685 44.8684 17.5686 45.3947 14.674 45.3947ZM32.8006 29.2675C32.8006 26.1097 33.4209 23.3091 34.6615 20.8656C35.9396 18.422 37.6501 16.5424 39.7928 15.2267C41.9732 13.9109 44.3979 13.2531 47.067 13.2531C49.3978 13.2531 51.4278 13.723 53.157 14.6628C54.9239 15.6026 56.3336 16.7868 57.3862 18.2153V13.7606H65.337V45H57.3862V40.4325C56.3712 41.8986 54.9615 43.1204 53.157 44.0978C51.3902 45.0376 49.3414 45.5075 47.0106 45.5075C44.3791 45.5075 41.9732 44.8308 39.7928 43.4775C37.6501 42.1242 35.9396 40.2257 34.6615 37.7822C33.4209 35.3011 32.8006 32.4629 32.8006 29.2675ZM57.3862 29.3803C57.3862 27.4631 57.0103 25.8278 56.2584 24.4744C55.5065 23.0835 54.4915 22.0309 53.2134 21.3167C51.9353 20.5648 50.5631 20.1889 49.097 20.1889C47.6309 20.1889 46.2776 20.546 45.037 21.2603C43.7965 21.9745 42.7815 23.0271 41.992 24.4181C41.2402 25.7714 40.8642 27.3879 40.8642 29.2675C40.8642 31.1471 41.2402 32.8012 41.992 34.2297C42.7815 35.6206 43.7965 36.692 45.037 37.4439C46.3152 38.1957 47.6685 38.5717 49.097 38.5717C50.5631 38.5717 51.9353 38.2145 53.2134 37.5003C54.4915 36.7484 55.5065 35.6958 56.2584 34.3425C57.0103 32.9516 57.3862 31.2975 57.3862 29.3803ZM80.3262 18.3281C81.3412 16.8244 82.7321 15.6026 84.4989 14.6628C86.3034 13.723 88.3522 13.2531 90.6453 13.2531C93.3144 13.2531 95.7203 13.9109 97.8631 15.2267C100.043 16.5424 101.754 18.422 102.994 20.8656C104.273 23.2715 104.912 26.0721 104.912 29.2675C104.912 32.4629 104.273 35.3011 102.994 37.7822C101.754 40.2257 100.043 42.1242 97.8631 43.4775C95.7203 44.8308 93.3144 45.5075 90.6453 45.5075C88.3146 45.5075 86.2658 45.0564 84.4989 44.1542C82.7697 43.2144 81.3787 42.0114 80.3262 40.5453V45H72.4317V3.27222H80.3262V18.3281ZM96.8481 29.2675C96.8481 27.3879 96.4534 25.7714 95.6639 24.4181C94.9121 23.0271 93.8971 21.9745 92.6189 21.2603C91.3784 20.546 90.025 20.1889 88.5589 20.1889C87.1304 20.1889 85.7771 20.5648 84.4989 21.3167C83.2584 22.0309 82.2434 23.0835 81.4539 24.4744C80.7021 25.8654 80.3262 27.5006 80.3262 29.3803C80.3262 31.2599 80.7021 32.8952 81.4539 34.2861C82.2434 35.677 83.2584 36.7484 84.4989 37.5003C85.7771 38.2145 87.1304 38.5717 88.5589 38.5717C90.025 38.5717 91.3784 38.1957 92.6189 37.4439C93.8971 36.692 94.9121 35.6206 95.6639 34.2297C96.4534 32.8388 96.8481 31.1847 96.8481 29.2675ZM128.528 45L117.927 31.6922V45H110.033V3.27222H117.927V27.0119L128.416 13.7606H138.678L124.919 29.4367L138.791 45H128.528ZM146.351 10.0389C144.96 10.0389 143.795 9.60657 142.855 8.74194C141.953 7.83972 141.502 6.73074 141.502 5.415C141.502 4.09926 141.953 3.00907 142.855 2.14444C143.795 1.24222 144.96 0.791109 146.351 0.791109C147.742 0.791109 148.889 1.24222 149.791 2.14444C150.731 3.00907 151.2 4.09926 151.2 5.415C151.2 6.73074 150.731 7.83972 149.791 8.74194C148.889 9.60657 147.742 10.0389 146.351 10.0389ZM150.242 13.7606V45H142.347V13.7606H150.242Z" fill="black"/>
<path d="M160.922 45.3947C159.494 45.3947 158.309 44.9624 157.37 44.0978C156.467 43.1956 156.016 42.0866 156.016 40.7708C156.016 39.4551 156.467 38.3649 157.37 37.5003C158.309 36.5981 159.494 36.1469 160.922 36.1469C162.313 36.1469 163.46 36.5981 164.362 37.5003C165.264 38.3649 165.715 39.4551 165.715 40.7708C165.715 42.0866 165.264 43.1956 164.362 44.0978C163.46 44.9624 162.313 45.3947 160.922 45.3947Z" fill="#FF0C0C"/>
<path d="M183.413 45.5075C180.856 45.5075 178.563 45.0564 176.533 44.1542C174.503 43.2144 172.887 41.955 171.684 40.3761C170.518 38.7972 169.879 37.0492 169.767 35.1319H177.717C177.868 36.3349 178.451 37.3311 179.466 38.1206C180.518 38.91 181.815 39.3047 183.356 39.3047C184.86 39.3047 186.025 39.004 186.852 38.4025C187.717 37.801 188.149 37.0304 188.149 36.0906C188.149 35.0756 187.623 34.3237 186.571 33.835C185.555 33.3087 183.92 32.7448 181.665 32.1433C179.334 31.5794 177.417 30.9968 175.913 30.3953C174.447 29.7938 173.169 28.8728 172.079 27.6322C171.026 26.3917 170.5 24.7188 170.5 22.6136C170.5 20.8844 170.988 19.3055 171.966 17.8769C172.981 16.4484 174.409 15.3206 176.251 14.4936C178.131 13.6666 180.33 13.2531 182.849 13.2531C186.571 13.2531 189.54 14.1929 191.758 16.0725C193.976 17.9145 195.198 20.4144 195.424 23.5722H187.867C187.755 22.3317 187.228 21.3543 186.289 20.64C185.386 19.8881 184.165 19.5122 182.623 19.5122C181.195 19.5122 180.086 19.7754 179.296 20.3017C178.544 20.828 178.169 21.561 178.169 22.5008C178.169 23.5534 178.695 24.3617 179.747 24.9256C180.8 25.4519 182.435 25.9969 184.653 26.5608C186.909 27.1247 188.77 27.7074 190.236 28.3089C191.702 28.9104 192.961 29.8502 194.014 31.1283C195.104 32.3689 195.668 34.023 195.706 36.0906C195.706 37.895 195.198 39.5115 194.183 40.94C193.206 42.3685 191.777 43.4963 189.897 44.3233C188.055 45.1128 185.894 45.5075 183.413 45.5075ZM205.574 10.0389C204.183 10.0389 203.018 9.60657 202.078 8.74194C201.175 7.83972 200.724 6.73074 200.724 5.415C200.724 4.09926 201.175 3.00907 202.078 2.14444C203.018 1.24222 204.183 0.791109 205.574 0.791109C206.965 0.791109 208.111 1.24222 209.014 2.14444C209.953 3.00907 210.423 4.09926 210.423 5.415C210.423 6.73074 209.953 7.83972 209.014 8.74194C208.111 9.60657 206.965 10.0389 205.574 10.0389ZM209.465 13.7606V45H201.57V13.7606H209.465ZM225.84 20.2453V35.3575C225.84 36.4101 226.085 37.1807 226.573 37.6694C227.1 38.1206 227.964 38.3461 229.167 38.3461H232.832V45H227.87C221.216 45 217.889 41.767 217.889 35.3011V20.2453H214.168V13.7606H217.889V6.03527H225.84V13.7606H232.832V20.2453H225.84ZM266.935 28.7036C266.935 29.8314 266.86 30.8464 266.71 31.7486H243.872C244.06 34.0042 244.85 35.771 246.24 37.0492C247.631 38.3273 249.342 38.9664 251.372 38.9664C254.304 38.9664 256.39 37.707 257.631 35.1883H266.146C265.244 38.1957 263.514 40.6769 260.958 42.6317C258.402 44.5489 255.263 45.5075 251.541 45.5075C248.534 45.5075 245.827 44.8496 243.421 43.5339C241.053 42.1806 239.192 40.2821 237.839 37.8386C236.523 35.3951 235.865 32.5756 235.865 29.3803C235.865 26.1473 236.523 23.3091 237.839 20.8656C239.154 18.422 240.996 16.5424 243.365 15.2267C245.733 13.9109 248.458 13.2531 251.541 13.2531C254.511 13.2531 257.161 13.8921 259.492 15.1703C261.86 16.4484 263.683 18.2717 264.962 20.64C266.277 22.9707 266.935 25.6586 266.935 28.7036ZM258.759 26.4481C258.721 24.4181 257.988 22.8016 256.56 21.5986C255.131 20.3581 253.383 19.7378 251.315 19.7378C249.361 19.7378 247.707 20.3393 246.353 21.5422C245.037 22.7076 244.229 24.3429 243.929 26.4481H258.759Z" fill="#1877F2"/>
</svg>
